<?xml version="1.0" standalone="no"?>
<!DOCTYPE svg PUBLIC "-//W3C//DTD SVG 20010904//EN"
 "http://www.w3.org/TR/2001/REC-SVG-20010904/DTD/svg10.dtd">
<svg version="1.0" xmlns="http://www.w3.org/2000/svg"
 width="260.000000pt" height="260.000000pt" viewBox="0 0 260.000000 260.000000"
 preserveAspectRatio="xMidYMid meet">
<metadata>
Created by potrace 1.11, written by Peter Selinger 2001-2013
</metadata>
<g transform="translate(0.000000,260.000000) scale(0.100000,-0.100000)"
fill="#000000" stroke="none">
<path d="M767 2356 c-117 -43 -196 -165 -184 -281 3 -30 15 -75 26 -101 12
-25 21 -60 21 -75 0 -32 -129 -276 -161 -305 -12 -11 -46 -21 -85 -26 -119
-14 -208 -70 -257 -162 -31 -58 -31 -174 0 -232 48 -91 122 -139 235 -154 88
-11 94 -17 187 -179 78 -138 84 -165 50 -233 -86 -169 42 -378 232 -378 30 0
76 7 102 16 50 17 132 83 142 114 13 42 53 50 236 50 l171 0 73 -74 c61 -64
80 -77 130 -91 136 -40 261 13 327 138 31 59 32 175 1 232 -48 91 -137 144
-239 145 -112 0 -190 -42 -250 -136 -45 -70 -69 -77 -247 -72 l-139 3 -31 37
c-18 21 -47 56 -66 79 -46 54 -100 80 -189 90 -41 5 -84 15 -97 23 -12 8 -57
73 -100 145 -75 127 -77 133 -73 182 4 38 12 58 32 77 l26 27 174 0 c189 0
216 -6 242 -56 50 -98 173 -153 288 -129 67 14 125 54 173 121 52 73 72 79
272 79 l169 0 11 -33 c27 -80 120 -149 218 -163 100 -13 217 44 267 129 66
112 53 231 -32 316 -49 49 -118 81 -174 81 -15 0 -45 7 -67 16 -36 14 -48 30
-117 147 -42 73 -78 148 -81 168 -4 26 3 57 22 105 22 56 26 79 22 125 -16
176 -174 279 -350 230 -52 -15 -141 -87 -152 -122 -12 -38 -63 -49 -221 -49
-172 0 -196 8 -248 80 -60 84 -198 130 -289 96z m720 -321 c13 -9 38 -39 57
-68 20 -29 51 -63 71 -76 39 -26 122 -51 171 -51 47 0 76 -29 137 -137 102
-181 105 -196 68 -268 -12 -21 -21 -45 -21 -52 0 -10 -40 -13 -181 -13 -153 0
-185 3 -210 17 -16 10 -29 20 -29 24 0 4 -20 29 -45 57 -112 125 -291 127
-393 5 -20 -24 -49 -59 -64 -76 l-26 -32 -159 -3 c-136 -2 -163 0 -193 15 -37
19 -80 83 -80 120 0 31 153 304 180 322 12 8 51 18 87 23 85 10 158 50 197
108 17 24 43 57 58 72 l26 28 164 0 c131 0 168 -3 185 -15z"/>
</g>
</svg>
